<svg xmlns="http://www.w3.org/2000/svg" viewBox="0 0 1280 720" width="1280" height="720">
	<style>
		tspan { white-space:pre }
		.shp0 { fill: #ffffff } 
	</style>
	<g id="&lt;Group&gt;">
		<g id="&lt;Group&gt;">
			<g id="&lt;Group&gt;">
				<path id="&lt;Path&gt;" class="shp0" d="M468.97 345.56C484.67 341.07 500.21 339.62 526.23 341.1C559.19 342.98 591.42 350.7 623.54 357.84C654.24 364.66 686.73 372.18 718.36 370.25C767.94 367.23 810.59 332.5 828.23 286.72C830.05 282.01 831.51 277.4 832.69 272.93C831.98 273.94 831.05 275.21 829.86 276.6C829.86 276.6 829.46 277.07 829.04 277.54C812.73 295.63 791.19 309.77 768.65 318.92C740.72 330.26 708.41 329.6 679.13 324.89C652.53 320.62 626.17 315.29 599.79 309.65C558.38 300.81 532.42 294.26 500.94 298.54C490.63 299.94 479.16 302.58 466.96 308.7C463.68 310.35 448.34 318.28 434 334.87C422.71 347.94 417.13 360.49 414.9 366.03C412.94 370.92 411.65 375.17 410.81 378.31C422.1 368.11 441.51 353.41 468.97 345.56Z" />
			</g>
			<path id="&lt;Path&gt;" class="shp0" d="M740.19 240.3L719.23 219.34L740.19 198.38L761.15 219.34L740.19 240.3Z" />
			<path id="&lt;Path&gt;" class="shp0" d="M643.95 288.1L599.08 243.24L643.95 198.38L688.81 243.24L643.95 288.1Z" />
			<path id="&lt;Path&gt;" class="shp0" d="M764.09 264.2L743.12 243.24L764.09 222.28L785.05 243.24L764.09 264.2Z" />
			<path id="&lt;Path&gt;" class="shp0" d="M740.19 288.1L719.23 267.14L740.19 246.18L761.15 267.14L740.19 288.1Z" />
			<path id="&lt;Path&gt;" class="shp0" d="M716.29 264.2L695.33 243.24L716.29 222.28L737.25 243.24L716.29 264.2Z" />
		</g>
		<g id="&lt;Group&gt;">
			<path id="&lt;Path&gt;" class="shp0" d="M671.04 437.35C669.78 437.35 668.71 438.42 668.71 439.74C668.71 440.99 669.78 442.06 671.04 442.06C672.36 442.06 673.43 440.99 673.43 439.74C673.43 438.42 672.36 437.35 671.04 437.35Z" />
			<path id="&lt;Path&gt;" class="shp0" d="M714.14 437.35C712.89 437.35 711.82 438.42 711.82 439.67C711.82 440.99 712.89 442.06 714.14 442.06C715.46 442.06 716.53 440.99 716.53 439.67C716.53 438.42 715.46 437.35 714.14 437.35Z" />
			<path id="&lt;Path&gt;" class="shp0" d="M708.3 437.35C706.98 437.35 705.97 438.42 705.97 439.67C705.97 440.99 706.98 442.06 708.3 442.06C709.62 442.06 710.63 440.99 710.63 439.67C710.63 438.42 709.62 437.35 708.3 437.35Z" />
			<path id="&lt;Path&gt;" class="shp0" d="M796.34 411.71C797.66 411.71 798.66 410.64 798.66 409.38C798.66 408.06 797.66 407 796.34 407C795.02 407 794.01 408.06 794.01 409.38C794.01 410.64 795.02 411.71 796.34 411.71Z" />
			<path id="&lt;Path&gt;" class="shp0" d="M799.86 409.38C799.86 410.64 800.92 411.71 802.18 411.71C803.5 411.71 804.57 410.64 804.57 409.38C804.57 408.06 803.5 407 802.18 407C800.92 407 799.86 408.06 799.86 409.38Z" />
			<path id="&lt;Path&gt;" class="shp0" d="M799.23 406.37C800.55 406.37 801.62 405.3 801.62 404.04C801.62 402.72 800.55 401.65 799.23 401.65C797.97 401.65 796.9 402.72 796.9 404.04C796.9 405.3 797.97 406.37 799.23 406.37Z" />
			<path id="&lt;Compound Path&gt;" fill-rule="evenodd" class="shp0" d="M824.93 415.35L832.41 415.35L832.41 415.98L831.78 415.98C829.83 415.98 829.64 417.11 829.64 418.81L829.64 424.65C829.64 427.42 828.57 429.68 827.07 431.19C825.56 432.76 823.61 433.7 821.79 433.7L816.57 433.7C815.76 433.64 815.06 433.51 814.5 433.26C813.43 432.82 812.05 431.82 811.36 430.75C809.91 432.57 807.77 433.7 805.07 433.7C804.07 433.7 802.81 433.45 801.68 432.95C800.55 432.45 799.48 431.69 799.17 430.5C797.97 432.51 795.83 433.51 793.64 433.58C791.37 433.64 789.05 432.76 787.73 430.94C786.22 432.45 784.59 433.7 782.07 433.7L695.04 433.7C692.97 433.7 691.15 432.82 689.51 431.06C688 432.76 685.99 433.7 684.05 433.7L656.08 433.7C653 433.7 650.55 432.63 648.85 430.88C647.09 429.18 646.21 426.85 646.21 424.28C646.21 421.7 647.09 419.31 648.85 417.55C650.55 415.86 653 414.79 656.08 414.79C659.04 414.79 661.05 415.16 662.05 416.17C663.12 417.11 663.12 418.24 663.12 421.2L662.3 421.2C662.05 417.87 659.91 416.86 656.96 416.86C652.75 416.86 650.93 419.75 650.93 424.28C650.93 426.48 651.37 428.42 652.37 429.87C653.38 431.32 654.89 432.13 656.9 432.13L681.53 432.13C682.85 432.13 684.23 431.76 685.3 430.75C686.31 429.74 687 428.17 687.19 425.85L687.19 415.35L694.67 415.35L694.67 415.98L694.04 415.98C692.09 415.98 691.9 417.11 691.9 418.81L691.9 425.85C691.96 428.17 692.78 429.74 693.85 430.75C694.85 431.76 696.24 432.13 697.56 432.13L708.87 432.13L708.87 415.35L716.34 415.35L716.34 415.98L715.72 415.98C713.89 415.98 713.58 417.11 713.58 418.81L713.58 432.13L732.37 432.13L732.37 406.3L739.85 406.3L739.85 407L739.22 407C737.39 407 737.08 408.06 737.08 409.76L737.08 416.67L737.27 416.48C738.21 415.54 740.03 415.16 742.74 415.16L758.45 415.16C761.46 415.16 763.91 416.17 765.61 417.87C767.31 419.56 768.19 421.89 768.19 424.4C768.19 427.67 766.68 430.44 764.1 432.13L779.56 432.13C780.88 432.13 782.26 431.69 783.33 430.69C784.34 429.68 785.03 428.11 785.21 425.78L785.21 416.55L792.69 416.55L792.69 417.18L792.13 417.18C790.18 417.18 789.8 418.31 789.8 420L789.8 428.68C789.8 430.62 791.37 432.2 793.32 432.2C795.27 432.2 796.59 430.62 796.78 428.68L796.78 415.86L804.19 415.86L804.19 416.48L803.56 416.48C801.74 416.48 801.49 417.62 801.49 419.31L801.49 429.05C801.68 430.75 803.12 432.07 804.88 432.07C806.83 432.07 808.4 430.56 808.4 428.61L808.4 415.16L815.82 415.16L815.82 415.79L815.25 415.79C813.31 415.79 813.12 416.92 813.12 418.62L813.12 425.66C813.31 429.93 815.57 432.13 819.15 432.13L819.27 432.13C820.59 432.13 821.98 431.76 823.04 430.75C824.05 429.74 824.74 428.17 824.93 425.85L824.93 415.35ZM763.54 424.4C763.54 420.07 761.65 417.18 757.63 417.18L742.23 417.18C739.53 417.18 737.39 418.12 737.08 421.13L737.08 432.13L757.94 432.13C761.78 431.94 763.54 428.68 763.54 424.4Z" />
			<path id="&lt;Path&gt;" class="shp0" d="M824.36 411.71C825.68 411.71 826.69 410.64 826.69 409.38C826.69 408.06 825.68 407 824.36 407C823.04 407 822.04 408.06 822.04 409.38C822.04 410.64 823.04 411.71 824.36 411.71Z" />
			<path id="&lt;Path&gt;" class="shp0" d="M830.21 411.71C831.53 411.71 832.6 410.64 832.6 409.38C832.6 408.06 831.53 407 830.21 407C828.95 407 827.88 408.06 827.88 409.38C827.88 410.64 828.95 411.71 830.21 411.71Z" />
			<path id="&lt;Path&gt;" class="shp0" d="M420.02 432.45C418.08 432.45 417.13 431.25 417.13 428.74L417.13 415.98L422.03 415.98L422.03 414.35L417.13 414.35L417.13 408.13L415.44 408.13L413.42 410.64L413.42 414.35L410.53 414.35L410.53 415.98L413.42 415.98L413.42 428.74C413.42 432.51 415.44 434.14 418.33 434.14C419.77 434.14 420.84 433.89 421.72 433.51C422.54 433.2 423.04 432.82 423.48 432.45L423.1 431.63C422.29 432.07 421.47 432.45 420.02 432.45Z" />
			<path id="&lt;Compound Path&gt;" fill-rule="evenodd" class="shp0" d="M451.07 415.42C452.39 416.67 453.27 418.87 453.27 422.58L453.27 433.7L451.19 433.7L449.75 431.82L449.56 431.82C448.68 432.89 446.92 434.14 443.78 434.14C442.58 434.14 441.14 433.77 439.94 432.95C438.75 432.07 437.81 430.62 437.81 428.36C437.81 426.1 439 424.65 440.95 423.77C442.9 422.89 445.47 422.58 448.3 422.58L449.56 422.58C449.56 419.75 449.05 417.93 448.3 416.86C447.48 415.92 446.42 415.54 445.22 415.54C442.9 415.54 441.26 416.36 440.7 419.06L438.81 419.06C438.81 417.62 438.81 416.36 439.82 415.35C440.32 414.85 441.26 414.47 442.39 414.22C443.52 414.03 444.72 413.91 446.04 413.91C447.86 413.91 449.68 414.22 451.07 415.42ZM449.56 424.21L448.3 424.21C444.15 424.21 441.7 425.85 441.7 428.36C441.7 429.68 442.21 430.62 442.9 431.32C443.59 431.94 444.59 432.26 445.6 432.26C447.61 432.26 448.68 431.06 449.56 429.81L449.56 424.21Z" />
			<path id="&lt;Path&gt;" class="shp0" d="M479.91 422.96L477.4 421.95C475.32 421.07 474.13 419.88 474.13 418.43C474.13 416.8 475.57 415.54 478.28 415.54C481.54 415.54 483.37 417.24 483.8 419.88L484.62 419.88C484.62 417.8 484.62 416.61 483.62 415.54C482.55 414.54 480.54 413.91 477.4 413.91C475.45 413.91 473.75 414.35 472.56 415.29C471.36 416.17 470.61 417.49 470.61 419.25C470.61 421.95 472.43 423.59 475.57 424.84L478.02 425.85C480.54 426.92 481.73 427.92 481.73 429.56C481.73 431.25 480.35 432.45 477.21 432.45C473.69 432.45 471.87 430.81 471.43 428.11L470.61 428.11C470.61 430.25 470.61 431.44 471.68 432.45C472.68 433.51 474.76 434.14 478.02 434.14C480.03 434.14 481.92 433.64 483.18 432.7C484.5 431.82 485.25 430.5 485.25 428.74C485.25 425.91 483.43 424.4 479.91 422.96Z" />
			<path id="&lt;Path&gt;" class="shp0" d="M516.42 415.35C515.1 414.22 513.4 413.91 511.64 413.91C509.13 413.91 507.31 414.98 506.24 415.98L506.24 411.46C506.24 409.45 506.11 408.13 505.48 407.37C504.92 406.68 503.98 406.49 502.53 406.49L498.82 406.49L498.82 407.31L499.64 407.31C502.15 407.31 502.53 408.94 502.53 411.46L502.53 433.7L506.24 433.7L506.24 417.93C507.31 416.8 508.75 415.79 510.39 415.79C511.52 415.79 512.65 416.17 513.53 416.99C514.35 417.87 514.91 419.31 514.91 421.32L514.91 433.7L518.62 433.7L518.62 421.32C518.62 418.37 517.74 416.48 516.42 415.35Z" />
			<path id="&lt;Path&gt;" class="shp0" d="M544.32 432.45C542.37 432.45 541.43 431.25 541.43 428.74L541.43 415.98L546.33 415.98L546.33 414.35L541.43 414.35L541.43 408.13L539.73 408.13L537.72 410.64L537.72 414.35L534.83 414.35L534.83 415.98L537.72 415.98L537.72 428.74C537.72 432.51 539.73 434.14 542.62 434.14C544.07 434.14 545.14 433.89 546.02 433.51C546.83 433.2 547.34 432.82 547.78 432.45L547.4 431.63C546.58 432.07 545.76 432.45 544.32 432.45Z" />
			<path id="&lt;Path&gt;" class="shp0" d="M565.62 411.83C566.75 411.83 567.51 411.14 567.51 410.01C567.51 408.57 566.5 407.37 565.18 407.37C564.05 407.37 563.3 408.06 563.3 409.2C563.3 410.64 564.36 411.83 565.62 411.83Z" />
			<path id="&lt;Path&gt;" class="shp0" d="M564.05 414.35L560.34 414.35L560.34 415.16L561.16 415.16C563.67 415.16 564.05 416.8 564.05 419.25L564.05 433.7L567.76 433.7L567.76 419.25C567.76 417.24 567.57 415.98 567 415.23C566.44 414.47 565.5 414.35 564.05 414.35Z" />
			<path id="&lt;Compound Path&gt;" fill-rule="evenodd" class="shp0" d="M600.94 416.86C602.19 418.68 602.82 421.2 602.82 424.03C602.82 426.79 602.19 429.3 600.94 431.13C599.74 432.95 597.86 434.14 595.41 434.14C592.33 434.14 590.63 432.89 589.81 431.82L589.63 431.82L588.18 433.7L586.11 433.7L586.11 411.46C586.11 408.94 585.73 407.31 583.22 407.31L582.4 407.31L582.4 406.49L586.11 406.49C587.55 406.49 588.49 406.68 589.06 407.37C589.69 408.13 589.81 409.45 589.81 411.46L589.81 415.16C591.13 414.54 592.7 413.91 594.97 413.91C597.67 413.91 599.62 415.04 600.94 416.86ZM598.93 424.03C598.93 421.64 598.55 419.5 597.73 417.99C596.85 416.48 595.6 415.54 593.77 415.54C592.45 415.54 591.13 416.17 589.81 416.8L589.81 429.99C590.63 431.25 591.89 432.45 594.15 432.45C595.78 432.45 596.98 431.5 597.8 429.99C598.55 428.49 598.93 426.35 598.93 424.03Z" />
		</g>
	</g>
</svg>