<svg xmlns="http://www.w3.org/2000/svg" viewBox="0 0 490 312" width="490" height="312">
	<style>
		tspan { white-space:pre }
		.shp0 { fill: #ffffff } 
	</style>
	<g id="&lt;Group&gt;">
		<g id="&lt;Group&gt;">
			<g id="&lt;Group&gt;">
				<path id="&lt;Path&gt;" class="shp0" d="M94.97 171.56C110.67 167.07 126.21 165.62 152.23 167.1C185.19 168.98 217.42 176.7 249.54 183.84C280.24 190.66 312.73 198.18 344.36 196.25C393.94 193.23 436.59 158.5 454.23 112.72C456.05 108.01 457.51 103.4 458.69 98.93C457.98 99.94 457.05 101.21 455.86 102.6C455.86 102.6 455.46 103.07 455.04 103.54C438.73 121.63 417.19 135.77 394.65 144.92C366.72 156.26 334.41 155.6 305.13 150.89C278.53 146.62 252.17 141.29 225.79 135.65C184.38 126.81 158.42 120.26 126.94 124.54C116.63 125.94 105.16 128.58 92.96 134.7C89.68 136.35 74.34 144.28 60 160.87C48.71 173.94 43.13 186.49 40.9 192.03C38.94 196.92 37.65 201.17 36.81 204.31C48.1 194.11 67.51 179.41 94.97 171.56Z" />
			</g>
			<path id="&lt;Path&gt;" class="shp0" d="M366.19 66.3L345.23 45.34L366.19 24.38L387.15 45.34L366.19 66.3Z" />
			<path id="&lt;Path&gt;" class="shp0" d="M269.95 114.1L225.08 69.24L269.95 24.38L314.81 69.24L269.95 114.1Z" />
			<path id="&lt;Path&gt;" class="shp0" d="M390.09 90.2L369.12 69.24L390.09 48.28L411.05 69.24L390.09 90.2Z" />
			<path id="&lt;Path&gt;" class="shp0" d="M366.19 114.1L345.23 93.14L366.19 72.18L387.15 93.14L366.19 114.1Z" />
			<path id="&lt;Path&gt;" class="shp0" d="M342.29 90.2L321.33 69.24L342.29 48.28L363.25 69.24L342.29 90.2Z" />
		</g>
		<g id="&lt;Group&gt;">
			<path id="&lt;Path&gt;" class="shp0" d="M297.04 263.35C295.78 263.35 294.71 264.42 294.71 265.74C294.71 266.99 295.78 268.06 297.04 268.06C298.36 268.06 299.43 266.99 299.43 265.74C299.43 264.42 298.36 263.35 297.04 263.35Z" />
			<path id="&lt;Path&gt;" class="shp0" d="M340.14 263.35C338.89 263.35 337.82 264.42 337.82 265.67C337.82 266.99 338.89 268.06 340.14 268.06C341.46 268.06 342.53 266.99 342.53 265.67C342.53 264.42 341.46 263.35 340.14 263.35Z" />
			<path id="&lt;Path&gt;" class="shp0" d="M334.3 263.35C332.98 263.35 331.97 264.42 331.97 265.67C331.97 266.99 332.98 268.06 334.3 268.06C335.62 268.06 336.63 266.99 336.63 265.67C336.63 264.42 335.62 263.35 334.3 263.35Z" />
			<path id="&lt;Path&gt;" class="shp0" d="M422.34 237.71C423.66 237.71 424.66 236.64 424.66 235.38C424.66 234.06 423.66 233 422.34 233C421.02 233 420.01 234.06 420.01 235.38C420.01 236.64 421.02 237.71 422.34 237.71Z" />
			<path id="&lt;Path&gt;" class="shp0" d="M425.86 235.38C425.86 236.64 426.92 237.71 428.18 237.71C429.5 237.71 430.57 236.64 430.57 235.38C430.57 234.06 429.5 233 428.18 233C426.92 233 425.86 234.06 425.86 235.38Z" />
			<path id="&lt;Path&gt;" class="shp0" d="M425.23 232.37C426.55 232.37 427.62 231.3 427.62 230.04C427.62 228.72 426.55 227.65 425.23 227.65C423.97 227.65 422.9 228.72 422.9 230.04C422.9 231.3 423.97 232.37 425.23 232.37Z" />
			<path id="&lt;Compound Path&gt;" fill-rule="evenodd" class="shp0" d="M450.93 241.35L458.41 241.35L458.41 241.98L457.78 241.98C455.83 241.98 455.64 243.11 455.64 244.81L455.64 250.65C455.64 253.42 454.57 255.68 453.07 257.19C451.56 258.76 449.61 259.7 447.79 259.7L442.57 259.7C441.76 259.64 441.06 259.51 440.5 259.26C439.43 258.82 438.05 257.82 437.36 256.75C435.91 258.57 433.77 259.7 431.07 259.7C430.07 259.7 428.81 259.45 427.68 258.95C426.55 258.45 425.48 257.69 425.17 256.5C423.97 258.51 421.83 259.51 419.64 259.58C417.37 259.64 415.05 258.76 413.73 256.94C412.22 258.45 410.59 259.7 408.07 259.7L321.04 259.7C318.97 259.7 317.15 258.82 315.51 257.06C314 258.76 311.99 259.7 310.05 259.7L282.08 259.7C279 259.7 276.55 258.63 274.85 256.88C273.09 255.18 272.21 252.85 272.21 250.28C272.21 247.7 273.09 245.31 274.85 243.55C276.55 241.86 279 240.79 282.08 240.79C285.04 240.79 287.05 241.16 288.05 242.17C289.12 243.11 289.12 244.24 289.12 247.2L288.3 247.2C288.05 243.87 285.91 242.86 282.96 242.86C278.75 242.86 276.93 245.75 276.93 250.28C276.93 252.48 277.37 254.42 278.37 255.87C279.38 257.32 280.89 258.13 282.9 258.13L307.53 258.13C308.85 258.13 310.23 257.76 311.3 256.75C312.31 255.74 313 254.17 313.19 251.85L313.19 241.35L320.67 241.35L320.67 241.98L320.04 241.98C318.09 241.98 317.9 243.11 317.9 244.81L317.9 251.85C317.96 254.17 318.78 255.74 319.85 256.75C320.85 257.76 322.24 258.13 323.56 258.13L334.87 258.13L334.87 241.35L342.34 241.35L342.34 241.98L341.72 241.98C339.89 241.98 339.58 243.11 339.58 244.81L339.58 258.13L358.37 258.13L358.37 232.3L365.85 232.3L365.85 233L365.22 233C363.39 233 363.08 234.06 363.08 235.76L363.08 242.67L363.27 242.48C364.21 241.54 366.03 241.16 368.74 241.16L384.45 241.16C387.46 241.16 389.91 242.17 391.61 243.87C393.31 245.56 394.19 247.89 394.19 250.4C394.19 253.67 392.68 256.44 390.1 258.13L405.56 258.13C406.88 258.13 408.26 257.69 409.33 256.69C410.34 255.68 411.03 254.11 411.21 251.78L411.21 242.55L418.69 242.55L418.69 243.18L418.13 243.18C416.18 243.18 415.8 244.31 415.8 246L415.8 254.68C415.8 256.62 417.37 258.2 419.32 258.2C421.27 258.2 422.59 256.62 422.78 254.68L422.78 241.86L430.19 241.86L430.19 242.48L429.56 242.48C427.74 242.48 427.49 243.62 427.49 245.31L427.49 255.05C427.68 256.75 429.12 258.07 430.88 258.07C432.83 258.07 434.4 256.56 434.4 254.61L434.4 241.16L441.82 241.16L441.82 241.79L441.25 241.79C439.31 241.79 439.12 242.92 439.12 244.62L439.12 251.66C439.31 255.93 441.57 258.13 445.15 258.13L445.27 258.13C446.59 258.13 447.98 257.76 449.04 256.75C450.05 255.74 450.74 254.17 450.93 251.85L450.93 241.35ZM389.54 250.4C389.54 246.07 387.65 243.18 383.63 243.18L368.23 243.18C365.53 243.18 363.39 244.12 363.08 247.13L363.08 258.13L383.94 258.13C387.78 257.94 389.54 254.68 389.54 250.4Z" />
			<path id="&lt;Path&gt;" class="shp0" d="M450.36 237.71C451.68 237.71 452.69 236.64 452.69 235.38C452.69 234.06 451.68 233 450.36 233C449.04 233 448.04 234.06 448.04 235.38C448.04 236.64 449.04 237.71 450.36 237.71Z" />
			<path id="&lt;Path&gt;" class="shp0" d="M456.21 237.71C457.53 237.71 458.6 236.64 458.6 235.38C458.6 234.06 457.53 233 456.21 233C454.95 233 453.88 234.06 453.88 235.38C453.88 236.64 454.95 237.71 456.21 237.71Z" />
			<path id="&lt;Path&gt;" class="shp0" d="M46.02 258.45C44.08 258.45 43.13 257.25 43.13 254.74L43.13 241.98L48.03 241.98L48.03 240.35L43.13 240.35L43.13 234.13L41.44 234.13L39.42 236.64L39.42 240.35L36.53 240.35L36.53 241.98L39.42 241.98L39.42 254.74C39.42 258.51 41.44 260.14 44.33 260.14C45.77 260.14 46.84 259.89 47.72 259.51C48.54 259.2 49.04 258.82 49.48 258.45L49.1 257.63C48.29 258.07 47.47 258.45 46.02 258.45Z" />
			<path id="&lt;Compound Path&gt;" fill-rule="evenodd" class="shp0" d="M77.07 241.42C78.39 242.67 79.27 244.87 79.27 248.58L79.27 259.7L77.19 259.7L75.75 257.82L75.56 257.82C74.68 258.89 72.92 260.14 69.78 260.14C68.58 260.14 67.14 259.77 65.94 258.95C64.75 258.07 63.81 256.62 63.81 254.36C63.81 252.1 65 250.65 66.95 249.77C68.9 248.89 71.47 248.58 74.3 248.58L75.56 248.58C75.56 245.75 75.05 243.93 74.3 242.86C73.48 241.92 72.42 241.54 71.22 241.54C68.9 241.54 67.26 242.36 66.7 245.06L64.81 245.06C64.81 243.62 64.81 242.36 65.82 241.35C66.32 240.85 67.26 240.47 68.39 240.22C69.52 240.03 70.72 239.91 72.04 239.91C73.86 239.91 75.68 240.22 77.07 241.42ZM75.56 250.21L74.3 250.21C70.15 250.21 67.7 251.85 67.7 254.36C67.7 255.68 68.21 256.62 68.9 257.32C69.59 257.94 70.59 258.26 71.6 258.26C73.61 258.26 74.68 257.06 75.56 255.81L75.56 250.21Z" />
			<path id="&lt;Path&gt;" class="shp0" d="M105.91 248.96L103.4 247.95C101.32 247.07 100.13 245.88 100.13 244.43C100.13 242.8 101.57 241.54 104.28 241.54C107.54 241.54 109.37 243.24 109.8 245.88L110.62 245.88C110.62 243.8 110.62 242.61 109.62 241.54C108.55 240.54 106.54 239.91 103.4 239.91C101.45 239.91 99.75 240.35 98.56 241.29C97.36 242.17 96.61 243.49 96.61 245.25C96.61 247.95 98.43 249.59 101.57 250.84L104.02 251.85C106.54 252.92 107.73 253.92 107.73 255.56C107.73 257.25 106.35 258.45 103.21 258.45C99.69 258.45 97.87 256.81 97.43 254.11L96.61 254.11C96.61 256.25 96.61 257.44 97.68 258.45C98.68 259.51 100.76 260.14 104.02 260.14C106.03 260.14 107.92 259.64 109.18 258.7C110.5 257.82 111.25 256.5 111.25 254.74C111.25 251.91 109.43 250.4 105.91 248.96Z" />
			<path id="&lt;Path&gt;" class="shp0" d="M142.42 241.35C141.1 240.22 139.4 239.91 137.64 239.91C135.13 239.91 133.31 240.98 132.24 241.98L132.24 237.46C132.24 235.45 132.11 234.13 131.48 233.37C130.92 232.68 129.98 232.49 128.53 232.49L124.82 232.49L124.82 233.31L125.64 233.31C128.15 233.31 128.53 234.94 128.53 237.46L128.53 259.7L132.24 259.7L132.24 243.93C133.31 242.8 134.75 241.79 136.39 241.79C137.52 241.79 138.65 242.17 139.53 242.99C140.35 243.87 140.91 245.31 140.91 247.32L140.91 259.7L144.62 259.7L144.62 247.32C144.62 244.37 143.74 242.48 142.42 241.35Z" />
			<path id="&lt;Path&gt;" class="shp0" d="M170.32 258.45C168.37 258.45 167.43 257.25 167.43 254.74L167.43 241.98L172.33 241.98L172.33 240.35L167.43 240.35L167.43 234.13L165.73 234.13L163.72 236.64L163.72 240.35L160.83 240.35L160.83 241.98L163.72 241.98L163.72 254.74C163.72 258.51 165.73 260.14 168.62 260.14C170.07 260.14 171.14 259.89 172.02 259.51C172.83 259.2 173.34 258.82 173.78 258.45L173.4 257.63C172.58 258.07 171.76 258.45 170.32 258.45Z" />
			<path id="&lt;Path&gt;" class="shp0" d="M191.62 237.83C192.75 237.83 193.51 237.14 193.51 236.01C193.51 234.57 192.5 233.37 191.18 233.37C190.05 233.37 189.3 234.06 189.3 235.2C189.3 236.64 190.36 237.83 191.62 237.83Z" />
			<path id="&lt;Path&gt;" class="shp0" d="M190.05 240.35L186.34 240.35L186.34 241.16L187.16 241.16C189.67 241.16 190.05 242.8 190.05 245.25L190.05 259.7L193.76 259.7L193.76 245.25C193.76 243.24 193.57 241.98 193 241.23C192.44 240.47 191.5 240.35 190.05 240.35Z" />
			<path id="&lt;Compound Path&gt;" fill-rule="evenodd" class="shp0" d="M226.94 242.86C228.19 244.68 228.82 247.2 228.82 250.03C228.82 252.79 228.19 255.3 226.94 257.13C225.74 258.95 223.86 260.14 221.41 260.14C218.33 260.14 216.63 258.89 215.81 257.82L215.63 257.82L214.18 259.7L212.11 259.7L212.11 237.46C212.11 234.94 211.73 233.31 209.22 233.31L208.4 233.31L208.4 232.49L212.11 232.49C213.55 232.49 214.49 232.68 215.06 233.37C215.69 234.13 215.81 235.45 215.81 237.46L215.81 241.16C217.13 240.54 218.7 239.91 220.97 239.91C223.67 239.91 225.62 241.04 226.94 242.86ZM224.93 250.03C224.93 247.64 224.55 245.5 223.73 243.99C222.85 242.48 221.6 241.54 219.77 241.54C218.45 241.54 217.13 242.17 215.81 242.8L215.81 255.99C216.63 257.25 217.89 258.45 220.15 258.45C221.78 258.45 222.98 257.5 223.8 255.99C224.55 254.49 224.93 252.35 224.93 250.03Z" />
		</g>
	</g>
</svg>